<svg width="610" height="137" viewBox="0 0 610 137" fill="none" xmlns="http://www.w3.org/2000/svg">
<path d="M47.5171 57.2208C30.606 57.2208 17.13 69.3316 12.5059 75.387C14.4876 71.2033 20.6311 61.4486 29.3509 55.8996C29.0866 55.3711 25.2772 55.0188 23.4056 54.9087C25.8277 50.6149 34.2392 41.1685 48.5079 37.7334C48.7722 35.6195 47.2969 30.6872 46.5262 28.4852L49.1685 26.8337L34.3053 30.7972L57.4259 17.9158L59.7379 20.8884L54.7835 28.4852C61.1252 30.5991 62.2702 35.9719 62.05 38.394C64.1639 38.1298 67.3347 38.5041 68.6559 38.7243L71.2982 57.2208L65.3529 45.9908C50.5558 45.9908 41.792 51.9361 39.2597 54.9087L47.5171 57.2208Z" fill="#077ED4"/>
<path fill-rule="evenodd" clip-rule="evenodd" d="M9.91696 44.9999C9.91696 26.2405 25.1245 11.033 43.8838 11.033C62.6432 11.033 77.8507 26.2405 77.8507 44.9999C77.8507 63.7593 62.6432 78.9668 43.8838 78.9668C35.0001 78.9668 26.9128 75.5563 20.86 69.9732C19.3432 71.2311 18.0109 72.479 16.8861 73.6394C23.9333 80.2851 33.4329 84.3584 43.8838 84.3584C65.6209 84.3584 83.2423 66.737 83.2423 44.9999C83.2423 23.2629 65.6209 5.64148 43.8838 5.64148C22.1468 5.64148 4.52539 23.2629 4.52539 44.9999C4.52539 54.3563 7.79019 62.9502 13.2427 69.7045C14.1587 68.2687 15.2475 66.7005 16.4955 65.0942C12.36 59.467 9.91696 52.5188 9.91696 44.9999ZM17.8708 66.8431C17.8661 66.8493 17.8615 66.8554 17.8568 66.8615C16.6353 68.465 15.5808 70.0197 14.7104 71.4201C14.9235 71.6552 15.1393 71.8876 15.3579 72.1175C16.4908 70.9501 17.8164 69.7062 19.3143 68.4539C18.8164 67.9325 18.335 67.3953 17.8708 66.8431Z" fill="#077ED4"/>
<path d="M132.146 32.1V40.62H145.886V48.54H132.146V57.78H147.686V66H121.886V23.88H147.686V32.1H132.146ZM164.607 21.6V66H154.347V21.6H164.607ZM192.502 66L182.302 51.96V66H172.042V21.6H182.302V46.14L192.442 32.52H205.102L191.182 49.32L205.222 66H192.502ZM237.087 66.42C234.007 66.42 231.247 65.92 228.807 64.92C226.367 63.92 224.407 62.44 222.927 60.48C221.487 58.52 220.727 56.16 220.647 53.4H231.567C231.727 54.96 232.267 56.16 233.187 57C234.107 57.8 235.307 58.2 236.787 58.2C238.307 58.2 239.507 57.86 240.387 57.18C241.267 56.46 241.707 55.48 241.707 54.24C241.707 53.2 241.347 52.34 240.627 51.66C239.947 50.98 239.087 50.42 238.047 49.98C237.047 49.54 235.607 49.04 233.727 48.48C231.007 47.64 228.787 46.8 227.067 45.96C225.347 45.12 223.867 43.88 222.627 42.24C221.387 40.6 220.767 38.46 220.767 35.82C220.767 31.9 222.187 28.84 225.027 26.64C227.867 24.4 231.567 23.28 236.127 23.28C240.767 23.28 244.507 24.4 247.347 26.64C250.187 28.84 251.707 31.92 251.907 35.88H240.807C240.727 34.52 240.227 33.46 239.307 32.7C238.387 31.9 237.207 31.5 235.767 31.5C234.527 31.5 233.527 31.84 232.767 32.52C232.007 33.16 231.627 34.1 231.627 35.34C231.627 36.7 232.267 37.76 233.547 38.52C234.827 39.28 236.827 40.1 239.547 40.98C242.267 41.9 244.467 42.78 246.147 43.62C247.867 44.46 249.347 45.68 250.587 47.28C251.827 48.88 252.447 50.94 252.447 53.46C252.447 55.86 251.827 58.04 250.587 60C249.387 61.96 247.627 63.52 245.307 64.68C242.987 65.84 240.247 66.42 237.087 66.42ZM291.821 32.52V66H281.561V61.44C280.521 62.92 279.101 64.12 277.301 65.04C275.541 65.92 273.581 66.36 271.421 66.36C268.861 66.36 266.601 65.8 264.641 64.68C262.681 63.52 261.161 61.86 260.081 59.7C259.001 57.54 258.461 55 258.461 52.08V32.52H268.661V50.7C268.661 52.94 269.241 54.68 270.401 55.92C271.561 57.16 273.121 57.78 275.081 57.78C277.081 57.78 278.661 57.16 279.821 55.92C280.981 54.68 281.561 52.94 281.561 50.7V32.52H291.821ZM311.91 32.04C314.27 32.04 316.33 32.52 318.09 33.48C319.89 34.44 321.27 35.7 322.23 37.26V32.52H332.49V65.94C332.49 69.02 331.87 71.8 330.63 74.28C329.43 76.8 327.57 78.8 325.05 80.28C322.57 81.76 319.47 82.5 315.75 82.5C310.79 82.5 306.77 81.32 303.69 78.96C300.61 76.64 298.85 73.48 298.41 69.48H308.55C308.87 70.76 309.63 71.76 310.83 72.48C312.03 73.24 313.51 73.62 315.27 73.62C317.39 73.62 319.07 73 320.31 71.76C321.59 70.56 322.23 68.62 322.23 65.94V61.2C321.23 62.76 319.85 64.04 318.09 65.04C316.33 66 314.27 66.48 311.91 66.48C309.15 66.48 306.65 65.78 304.41 64.38C302.17 62.94 300.39 60.92 299.07 58.32C297.79 55.68 297.15 52.64 297.15 49.2C297.15 45.76 297.79 42.74 299.07 40.14C300.39 37.54 302.17 35.54 304.41 34.14C306.65 32.74 309.15 32.04 311.91 32.04ZM322.23 49.26C322.23 46.7 321.51 44.68 320.07 43.2C318.67 41.72 316.95 40.98 314.91 40.98C312.87 40.98 311.13 41.72 309.69 43.2C308.29 44.64 307.59 46.64 307.59 49.2C307.59 51.76 308.29 53.8 309.69 55.32C311.13 56.8 312.87 57.54 314.91 57.54C316.95 57.54 318.67 56.8 320.07 55.32C321.51 53.84 322.23 51.82 322.23 49.26ZM352.633 32.04C354.993 32.04 357.053 32.52 358.813 33.48C360.613 34.44 361.993 35.7 362.953 37.26V32.52H373.213V65.94C373.213 69.02 372.593 71.8 371.353 74.28C370.153 76.8 368.293 78.8 365.773 80.28C363.293 81.76 360.193 82.5 356.473 82.5C351.513 82.5 347.493 81.32 344.413 78.96C341.333 76.64 339.573 73.48 339.133 69.48H349.273C349.593 70.76 350.353 71.76 351.553 72.48C352.753 73.24 354.233 73.62 355.993 73.62C358.113 73.62 359.793 73 361.033 71.76C362.313 70.56 362.953 68.62 362.953 65.94V61.2C361.953 62.76 360.573 64.04 358.813 65.04C357.053 66 354.993 66.48 352.633 66.48C349.873 66.48 347.373 65.78 345.133 64.38C342.893 62.94 341.113 60.92 339.793 58.32C338.513 55.68 337.873 52.64 337.873 49.2C337.873 45.76 338.513 42.74 339.793 40.14C341.113 37.54 342.893 35.54 345.133 34.14C347.373 32.74 349.873 32.04 352.633 32.04ZM362.953 49.26C362.953 46.7 362.233 44.68 360.793 43.2C359.393 41.72 357.673 40.98 355.633 40.98C353.593 40.98 351.853 41.72 350.413 43.2C349.013 44.64 348.313 46.64 348.313 49.2C348.313 51.76 349.013 53.8 350.413 55.32C351.853 56.8 353.593 57.54 355.633 57.54C357.673 57.54 359.393 56.8 360.793 55.32C362.233 53.84 362.953 51.82 362.953 49.26ZM412.196 48.72C412.196 49.68 412.136 50.68 412.016 51.72H388.796C388.956 53.8 389.616 55.4 390.776 56.52C391.976 57.6 393.436 58.14 395.156 58.14C397.716 58.14 399.496 57.06 400.496 54.9H411.416C410.856 57.1 409.836 59.08 408.356 60.84C406.916 62.6 405.096 63.98 402.896 64.98C400.696 65.98 398.236 66.48 395.516 66.48C392.236 66.48 389.316 65.78 386.756 64.38C384.196 62.98 382.196 60.98 380.756 58.38C379.316 55.78 378.596 52.74 378.596 49.26C378.596 45.78 379.296 42.74 380.696 40.14C382.136 37.54 384.136 35.54 386.696 34.14C389.256 32.74 392.196 32.04 395.516 32.04C398.756 32.04 401.636 32.72 404.156 34.08C406.676 35.44 408.636 37.38 410.036 39.9C411.476 42.42 412.196 45.36 412.196 48.72ZM401.696 46.02C401.696 44.26 401.096 42.86 399.896 41.82C398.696 40.78 397.196 40.26 395.396 40.26C393.676 40.26 392.216 40.76 391.016 41.76C389.856 42.76 389.136 44.18 388.856 46.02H401.696ZM431.228 66.48C428.308 66.48 425.708 65.98 423.428 64.98C421.148 63.98 419.348 62.62 418.028 60.9C416.708 59.14 415.968 57.18 415.808 55.02H425.948C426.068 56.18 426.608 57.12 427.568 57.84C428.528 58.56 429.708 58.92 431.108 58.92C432.388 58.92 433.368 58.68 434.048 58.2C434.768 57.68 435.128 57.02 435.128 56.22C435.128 55.26 434.628 54.56 433.628 54.12C432.628 53.64 431.008 53.12 428.768 52.56C426.368 52 424.368 51.42 422.768 50.82C421.168 50.18 419.788 49.2 418.628 47.88C417.468 46.52 416.888 44.7 416.888 42.42C416.888 40.5 417.408 38.76 418.448 37.2C419.528 35.6 421.088 34.34 423.128 33.42C425.208 32.5 427.668 32.04 430.508 32.04C434.708 32.04 438.008 33.08 440.408 35.16C442.848 37.24 444.248 40 444.608 43.44H435.128C434.968 42.28 434.448 41.36 433.568 40.68C432.728 40 431.608 39.66 430.208 39.66C429.008 39.66 428.088 39.9 427.448 40.38C426.808 40.82 426.488 41.44 426.488 42.24C426.488 43.2 426.988 43.92 427.988 44.4C429.028 44.88 430.628 45.36 432.788 45.84C435.268 46.48 437.288 47.12 438.848 47.76C440.408 48.36 441.768 49.36 442.928 50.76C444.128 52.12 444.748 53.96 444.788 56.28C444.788 58.24 444.228 60 443.108 61.56C442.028 63.08 440.448 64.28 438.368 65.16C436.328 66.04 433.948 66.48 431.228 66.48ZM469.725 57.3V66H464.505C460.785 66 457.885 65.1 455.805 63.3C453.725 61.46 452.685 58.48 452.685 54.36V41.04H448.605V32.52H452.685V24.36H462.945V32.52H469.665V41.04H462.945V54.48C462.945 55.48 463.185 56.2 463.665 56.64C464.145 57.08 464.945 57.3 466.065 57.3H469.725ZM480.6 29.04C478.8 29.04 477.32 28.52 476.16 27.48C475.04 26.4 474.48 25.08 474.48 23.52C474.48 21.92 475.04 20.6 476.16 19.56C477.32 18.48 478.8 17.94 480.6 17.94C482.36 17.94 483.8 18.48 484.92 19.56C486.08 20.6 486.66 21.92 486.66 23.52C486.66 25.08 486.08 26.4 484.92 27.48C483.8 28.52 482.36 29.04 480.6 29.04ZM485.7 32.52V66H475.44V32.52H485.7ZM508.376 66.48C505.096 66.48 502.136 65.78 499.496 64.38C496.896 62.98 494.836 60.98 493.316 58.38C491.836 55.78 491.096 52.74 491.096 49.26C491.096 45.82 491.856 42.8 493.376 40.2C494.896 37.56 496.976 35.54 499.616 34.14C502.256 32.74 505.216 32.04 508.496 32.04C511.776 32.04 514.736 32.74 517.376 34.14C520.016 35.54 522.096 37.56 523.616 40.2C525.136 42.8 525.896 45.82 525.896 49.26C525.896 52.7 525.116 55.74 523.556 58.38C522.036 60.98 519.936 62.98 517.256 64.38C514.616 65.78 511.656 66.48 508.376 66.48ZM508.376 57.6C510.336 57.6 511.996 56.88 513.356 55.44C514.756 54 515.456 51.94 515.456 49.26C515.456 46.58 514.776 44.52 513.416 43.08C512.096 41.64 510.456 40.92 508.496 40.92C506.496 40.92 504.836 41.64 503.516 43.08C502.196 44.48 501.536 46.54 501.536 49.26C501.536 51.94 502.176 54 503.456 55.44C504.776 56.88 506.416 57.6 508.376 57.6ZM551.739 32.16C555.659 32.16 558.779 33.44 561.099 36C563.459 38.52 564.639 42 564.639 46.44V66H554.439V47.82C554.439 45.58 553.859 43.84 552.699 42.6C551.539 41.36 549.979 40.74 548.019 40.74C546.059 40.74 544.499 41.36 543.339 42.6C542.179 43.84 541.599 45.58 541.599 47.82V66H531.339V32.52H541.599V36.96C542.639 35.48 544.039 34.32 545.799 33.48C547.559 32.6 549.539 32.16 551.739 32.16ZM585.389 66.48C582.469 66.48 579.869 65.98 577.589 64.98C575.309 63.98 573.509 62.62 572.189 60.9C570.869 59.14 570.129 57.18 569.969 55.02H580.109C580.229 56.18 580.769 57.12 581.729 57.84C582.689 58.56 583.869 58.92 585.269 58.92C586.549 58.92 587.529 58.68 588.209 58.2C588.929 57.68 589.289 57.02 589.289 56.22C589.289 55.26 588.789 54.56 587.789 54.12C586.789 53.64 585.169 53.12 582.929 52.56C580.529 52 578.529 51.42 576.929 50.82C575.329 50.18 573.949 49.2 572.789 47.88C571.629 46.52 571.049 44.7 571.049 42.42C571.049 40.5 571.569 38.76 572.609 37.2C573.689 35.6 575.249 34.34 577.289 33.42C579.369 32.5 581.829 32.04 584.669 32.04C588.869 32.04 592.169 33.08 594.569 35.16C597.009 37.24 598.409 40 598.769 43.44H589.289C589.129 42.28 588.609 41.36 587.729 40.68C586.889 40 585.769 39.66 584.369 39.66C583.169 39.66 582.249 39.9 581.609 40.38C580.969 40.82 580.649 41.44 580.649 42.24C580.649 43.2 581.149 43.92 582.149 44.4C583.189 44.88 584.789 45.36 586.949 45.84C589.429 46.48 591.449 47.12 593.009 47.76C594.569 48.36 595.929 49.36 597.089 50.76C598.289 52.12 598.909 53.96 598.949 56.28C598.949 58.24 598.389 60 597.269 61.56C596.189 63.08 594.609 64.28 592.529 65.16C590.489 66.04 588.109 66.48 585.389 66.48Z" fill="#077ED4"/>
<path d="M8.28225 126.115C7.07425 126.115 5.9888 125.905 5.0259 125.485C4.08051 125.048 3.33645 124.452 2.79373 123.699C2.25101 122.929 1.97089 122.045 1.95338 121.047H4.50069C4.58822 121.905 4.93837 122.632 5.55112 123.227C6.18138 123.805 7.09176 124.093 8.28225 124.093C9.42022 124.093 10.3131 123.813 10.9609 123.253C11.6261 122.675 11.9588 121.94 11.9588 121.047C11.9588 120.347 11.7662 119.778 11.381 119.34C10.9959 118.902 10.5144 118.57 9.93669 118.342C9.35895 118.115 8.57988 117.87 7.59947 117.607C6.39147 117.292 5.41982 116.977 4.68451 116.662C3.96672 116.346 3.34521 115.856 2.81999 115.191C2.31228 114.508 2.05843 113.598 2.05843 112.46C2.05843 111.462 2.31228 110.578 2.81999 109.807C3.3277 109.037 4.03674 108.442 4.94712 108.022C5.87501 107.602 6.93419 107.391 8.12469 107.391C9.8404 107.391 11.241 107.82 12.3264 108.678C13.4294 109.536 14.0509 110.674 14.1909 112.092H11.5649C11.4773 111.392 11.1097 110.779 10.4619 110.254C9.81414 109.711 8.95628 109.44 7.88834 109.44C6.89043 109.44 6.07634 109.702 5.44608 110.228C4.81582 110.735 4.50069 111.453 4.50069 112.381C4.50069 113.046 4.68451 113.589 5.05217 114.009C5.43732 114.429 5.90127 114.753 6.44399 114.981C7.00422 115.191 7.7833 115.436 8.78121 115.716C9.98921 116.049 10.9609 116.381 11.6962 116.714C12.4315 117.029 13.0617 117.528 13.5869 118.211C14.1122 118.876 14.3748 119.787 14.3748 120.942C14.3748 121.835 14.1384 122.675 13.6657 123.463C13.193 124.251 12.4927 124.89 11.5649 125.38C10.637 125.87 9.54277 126.115 8.28225 126.115ZM30.6543 111.541V125.932H28.2645V123.805C27.8093 124.54 27.1703 125.118 26.3475 125.538C25.5421 125.94 24.6493 126.142 23.6689 126.142C22.5484 126.142 21.5417 125.914 20.6489 125.459C19.756 124.986 19.047 124.286 18.5217 123.358C18.014 122.43 17.7602 121.301 17.7602 119.97V111.541H20.1236V119.655C20.1236 121.073 20.4825 122.168 21.2003 122.938C21.9181 123.691 22.8985 124.067 24.1416 124.067C25.4196 124.067 26.4263 123.673 27.1616 122.885C27.8969 122.098 28.2645 120.951 28.2645 119.445V111.541H30.6543ZM39.7838 126.168C38.6808 126.168 37.6917 125.984 36.8163 125.617C35.941 125.231 35.2494 124.706 34.7417 124.041C34.234 123.358 33.9539 122.579 33.9014 121.704H36.3699C36.4399 122.421 36.7726 123.008 37.3678 123.463C37.9806 123.918 38.7771 124.146 39.7575 124.146C40.6679 124.146 41.3857 123.945 41.9109 123.542C42.4362 123.139 42.6988 122.632 42.6988 122.019C42.6988 121.389 42.4186 120.925 41.8584 120.627C41.2982 120.312 40.4316 120.005 39.2586 119.708C38.1906 119.428 37.3153 119.148 36.6325 118.867C35.9672 118.57 35.3895 118.141 34.8993 117.581C34.4266 117.003 34.1902 116.25 34.1902 115.322C34.1902 114.587 34.4091 113.913 34.8468 113.3C35.2844 112.687 35.906 112.206 36.7113 111.856C37.5166 111.488 38.4357 111.304 39.4687 111.304C41.0618 111.304 42.3486 111.707 43.329 112.512C44.3094 113.318 44.8346 114.421 44.9047 115.821H42.5149C42.4624 115.068 42.156 114.464 41.5958 114.009C41.0531 113.554 40.3178 113.326 39.3899 113.326C38.532 113.326 37.8493 113.51 37.3415 113.878C36.8338 114.246 36.58 114.727 36.58 115.322C36.58 115.795 36.7288 116.189 37.0264 116.504C37.3415 116.802 37.7267 117.047 38.1819 117.239C38.6546 117.414 39.3024 117.616 40.1252 117.843C41.1581 118.123 41.9985 118.404 42.6462 118.684C43.294 118.946 43.8455 119.349 44.3007 119.892C44.7734 120.434 45.0185 121.143 45.036 122.019C45.036 122.807 44.8171 123.516 44.3795 124.146C43.9418 124.776 43.3203 125.275 42.5149 125.643C41.7271 125.993 40.8167 126.168 39.7838 126.168ZM51.3244 113.51V121.993C51.3244 122.693 51.4732 123.192 51.7709 123.489C52.0685 123.769 52.585 123.91 53.3203 123.91H55.0797V125.932H52.9263C51.5958 125.932 50.5979 125.625 49.9326 125.013C49.2673 124.4 48.9347 123.393 48.9347 121.993V113.51H47.0702V111.541H48.9347V107.917H51.3244V111.541H55.0797V113.51H51.3244ZM57.0823 118.684C57.0823 117.213 57.38 115.926 57.9752 114.823C58.5705 113.703 59.3845 112.836 60.4175 112.223C61.4679 111.611 62.6321 111.304 63.9102 111.304C65.1707 111.304 66.2649 111.576 67.1928 112.118C68.1207 112.661 68.8122 113.344 69.2674 114.167V111.541H71.6834V125.932H69.2674V123.253C68.7947 124.093 68.0856 124.794 67.1402 125.354C66.2124 125.897 65.1269 126.168 63.8839 126.168C62.6059 126.168 61.4504 125.853 60.4175 125.223C59.3845 124.592 58.5705 123.708 57.9752 122.57C57.38 121.432 57.0823 120.137 57.0823 118.684ZM69.2674 118.71C69.2674 117.624 69.0485 116.679 68.6109 115.874C68.1732 115.068 67.5779 114.456 66.8251 114.035C66.0898 113.598 65.2757 113.379 64.3829 113.379C63.49 113.379 62.6759 113.589 61.9406 114.009C61.2053 114.429 60.6188 115.042 60.1811 115.847C59.7434 116.653 59.5246 117.598 59.5246 118.684C59.5246 119.787 59.7434 120.749 60.1811 121.572C60.6188 122.378 61.2053 122.999 61.9406 123.437C62.6759 123.857 63.49 124.067 64.3829 124.067C65.2757 124.067 66.0898 123.857 66.8251 123.437C67.5779 122.999 68.1732 122.378 68.6109 121.572C69.0485 120.749 69.2674 119.795 69.2674 118.71ZM76.9561 109.203C76.5009 109.203 76.1157 109.046 75.8006 108.731C75.4855 108.416 75.3279 108.03 75.3279 107.575C75.3279 107.12 75.4855 106.735 75.8006 106.42C76.1157 106.105 76.5009 105.947 76.9561 105.947C77.3938 105.947 77.7614 106.105 78.059 106.42C78.3742 106.735 78.5317 107.12 78.5317 107.575C78.5317 108.03 78.3742 108.416 78.059 108.731C77.7614 109.046 77.3938 109.203 76.9561 109.203ZM78.1115 111.541V125.932H75.7218V111.541H78.1115ZM89.1961 111.278C90.9468 111.278 92.3649 111.812 93.4504 112.88C94.5358 113.93 95.0785 115.454 95.0785 117.449V125.932H92.715V117.791C92.715 116.355 92.3562 115.261 91.6384 114.508C90.9206 113.738 89.9402 113.353 88.6971 113.353C87.4366 113.353 86.4299 113.747 85.6771 114.534C84.9418 115.322 84.5742 116.469 84.5742 117.975V125.932H82.1844V111.541H84.5742V113.589C85.0469 112.854 85.6859 112.285 86.4912 111.882C87.3141 111.479 88.2157 111.278 89.1961 111.278ZM98.0893 118.684C98.0893 117.213 98.3869 115.926 98.9822 114.823C99.5774 113.703 100.392 112.836 101.424 112.223C102.475 111.611 103.639 111.304 104.917 111.304C106.178 111.304 107.272 111.576 108.2 112.118C109.128 112.661 109.819 113.344 110.274 114.167V111.541H112.69V125.932H110.274V123.253C109.802 124.093 109.093 124.794 108.147 125.354C107.219 125.897 106.134 126.168 104.891 126.168C103.613 126.168 102.457 125.853 101.424 125.223C100.392 124.592 99.5774 123.708 98.9822 122.57C98.3869 121.432 98.0893 120.137 98.0893 118.684ZM110.274 118.71C110.274 117.624 110.056 116.679 109.618 115.874C109.18 115.068 108.585 114.456 107.832 114.035C107.097 113.598 106.283 113.379 105.39 113.379C104.497 113.379 103.683 113.589 102.948 114.009C102.212 114.429 101.626 115.042 101.188 115.847C100.75 116.653 100.532 117.598 100.532 118.684C100.532 119.787 100.75 120.749 101.188 121.572C101.626 122.378 102.212 122.999 102.948 123.437C103.683 123.857 104.497 124.067 105.39 124.067C106.283 124.067 107.097 123.857 107.832 123.437C108.585 122.999 109.18 122.378 109.618 121.572C110.056 120.749 110.274 119.795 110.274 118.71ZM119.119 114.219C119.609 113.361 120.327 112.661 121.272 112.118C122.217 111.576 123.294 111.304 124.502 111.304C125.798 111.304 126.962 111.611 127.995 112.223C129.028 112.836 129.842 113.703 130.437 114.823C131.032 115.926 131.33 117.213 131.33 118.684C131.33 120.137 131.032 121.432 130.437 122.57C129.842 123.708 129.019 124.592 127.968 125.223C126.935 125.853 125.78 126.168 124.502 126.168C123.259 126.168 122.165 125.897 121.219 125.354C120.291 124.811 119.591 124.12 119.119 123.279V125.932H116.729V106.499H119.119V114.219ZM128.888 118.684C128.888 117.598 128.669 116.653 128.231 115.847C127.793 115.042 127.198 114.429 126.445 114.009C125.71 113.589 124.896 113.379 124.003 113.379C123.128 113.379 122.314 113.598 121.561 114.035C120.825 114.456 120.23 115.077 119.775 115.9C119.337 116.705 119.119 117.642 119.119 118.71C119.119 119.795 119.337 120.749 119.775 121.572C120.23 122.378 120.825 122.999 121.561 123.437C122.314 123.857 123.128 124.067 124.003 124.067C124.896 124.067 125.71 123.857 126.445 123.437C127.198 122.999 127.793 122.378 128.231 121.572C128.669 120.749 128.888 119.787 128.888 118.684ZM135.71 109.203C135.254 109.203 134.869 109.046 134.554 108.731C134.239 108.416 134.081 108.03 134.081 107.575C134.081 107.12 134.239 106.735 134.554 106.42C134.869 106.105 135.254 105.947 135.71 105.947C136.147 105.947 136.515 106.105 136.813 106.42C137.128 106.735 137.285 107.12 137.285 107.575C137.285 108.03 137.128 108.416 136.813 108.731C136.515 109.046 136.147 109.203 135.71 109.203ZM136.865 111.541V125.932H134.475V111.541H136.865ZM143.328 106.499V125.932H140.938V106.499H143.328ZM148.635 109.203C148.18 109.203 147.795 109.046 147.479 108.731C147.164 108.416 147.007 108.03 147.007 107.575C147.007 107.12 147.164 106.735 147.479 106.42C147.795 106.105 148.18 105.947 148.635 105.947C149.073 105.947 149.44 106.105 149.738 106.42C150.053 106.735 150.211 107.12 150.211 107.575C150.211 108.03 150.053 108.416 149.738 108.731C149.44 109.046 149.073 109.203 148.635 109.203ZM149.79 111.541V125.932H147.401V111.541H149.79ZM156.778 113.51V121.993C156.778 122.693 156.927 123.192 157.225 123.489C157.522 123.769 158.039 123.91 158.774 123.91H160.534V125.932H158.38C157.05 125.932 156.052 125.625 155.386 125.013C154.721 124.4 154.388 123.393 154.388 121.993V113.51H152.524V111.541H154.388V107.917H156.778V111.541H160.534V113.51H156.778ZM175.824 111.541L167.158 132.707H164.69L167.526 125.774L161.722 111.541H164.374L168.891 123.201L173.356 111.541H175.824ZM190.322 126.168C189.219 126.168 188.23 125.984 187.355 125.617C186.479 125.231 185.788 124.706 185.28 124.041C184.772 123.358 184.492 122.579 184.44 121.704H186.908C186.978 122.421 187.311 123.008 187.906 123.463C188.519 123.918 189.316 124.146 190.296 124.146C191.206 124.146 191.924 123.945 192.449 123.542C192.975 123.139 193.237 122.632 193.237 122.019C193.237 121.389 192.957 120.925 192.397 120.627C191.837 120.312 190.97 120.005 189.797 119.708C188.729 119.428 187.854 119.148 187.171 118.867C186.506 118.57 185.928 118.141 185.438 117.581C184.965 117.003 184.729 116.25 184.729 115.322C184.729 114.587 184.947 113.913 185.385 113.3C185.823 112.687 186.444 112.206 187.25 111.856C188.055 111.488 188.974 111.304 190.007 111.304C191.6 111.304 192.887 111.707 193.867 112.512C194.848 113.318 195.373 114.421 195.443 115.821H193.053C193.001 115.068 192.694 114.464 192.134 114.009C191.591 113.554 190.856 113.326 189.928 113.326C189.07 113.326 188.388 113.51 187.88 113.878C187.372 114.246 187.118 114.727 187.118 115.322C187.118 115.795 187.267 116.189 187.565 116.504C187.88 116.802 188.265 117.047 188.72 117.239C189.193 117.414 189.841 117.616 190.664 117.843C191.697 118.123 192.537 118.404 193.185 118.684C193.832 118.946 194.384 119.349 194.839 119.892C195.312 120.434 195.557 121.143 195.574 122.019C195.574 122.807 195.356 123.516 194.918 124.146C194.48 124.776 193.859 125.275 193.053 125.643C192.265 125.993 191.355 126.168 190.322 126.168ZM201.863 113.51V121.993C201.863 122.693 202.012 123.192 202.309 123.489C202.607 123.769 203.123 123.91 203.859 123.91H205.618V125.932H203.465C202.134 125.932 201.136 125.625 200.471 125.013C199.806 124.4 199.473 123.393 199.473 121.993V113.51H197.609V111.541H199.473V107.917H201.863V111.541H205.618V113.51H201.863ZM207.621 118.684C207.621 117.213 207.918 115.926 208.514 114.823C209.109 113.703 209.923 112.836 210.956 112.223C212.006 111.611 213.171 111.304 214.449 111.304C215.709 111.304 216.803 111.576 217.731 112.118C218.659 112.661 219.351 113.344 219.806 114.167V111.541H222.222V125.932H219.806V123.253C219.333 124.093 218.624 124.794 217.679 125.354C216.751 125.897 215.665 126.168 214.422 126.168C213.144 126.168 211.989 125.853 210.956 125.223C209.923 124.592 209.109 123.708 208.514 122.57C207.918 121.432 207.621 120.137 207.621 118.684ZM219.806 118.71C219.806 117.624 219.587 116.679 219.149 115.874C218.712 115.068 218.116 114.456 217.364 114.035C216.628 113.598 215.814 113.379 214.921 113.379C214.028 113.379 213.214 113.589 212.479 114.009C211.744 114.429 211.157 115.042 210.72 115.847C210.282 116.653 210.063 117.598 210.063 118.684C210.063 119.787 210.282 120.749 210.72 121.572C211.157 122.378 211.744 122.999 212.479 123.437C213.214 123.857 214.028 124.067 214.921 124.067C215.814 124.067 216.628 123.857 217.364 123.437C218.116 122.999 218.712 122.378 219.149 121.572C219.587 120.749 219.806 119.795 219.806 118.71ZM228.65 113.878C229.07 113.055 229.665 112.416 230.436 111.961C231.223 111.506 232.178 111.278 233.298 111.278V113.747H232.668C229.989 113.747 228.65 115.2 228.65 118.106V125.932H226.26V111.541H228.65V113.878ZM238.972 113.51V121.993C238.972 122.693 239.12 123.192 239.418 123.489C239.716 123.769 240.232 123.91 240.968 123.91H242.727V125.932H240.574C239.243 125.932 238.245 125.625 237.58 125.013C236.915 124.4 236.582 123.393 236.582 121.993V113.51H234.717V111.541H236.582V107.917H238.972V111.541H242.727V113.51H238.972ZM250.717 126.168C249.614 126.168 248.625 125.984 247.75 125.617C246.874 125.231 246.183 124.706 245.675 124.041C245.167 123.358 244.887 122.579 244.835 121.704H247.303C247.373 122.421 247.706 123.008 248.301 123.463C248.914 123.918 249.71 124.146 250.691 124.146C251.601 124.146 252.319 123.945 252.844 123.542C253.369 123.139 253.632 122.632 253.632 122.019C253.632 121.389 253.352 120.925 252.792 120.627C252.231 120.312 251.365 120.005 250.192 119.708C249.124 119.428 248.249 119.148 247.566 118.867C246.9 118.57 246.323 118.141 245.833 117.581C245.36 117.003 245.124 116.25 245.124 115.322C245.124 114.587 245.342 113.913 245.78 113.3C246.218 112.687 246.839 112.206 247.645 111.856C248.45 111.488 249.369 111.304 250.402 111.304C251.995 111.304 253.282 111.707 254.262 112.512C255.243 113.318 255.768 114.421 255.838 115.821H253.448C253.396 115.068 253.089 114.464 252.529 114.009C251.986 113.554 251.251 113.326 250.323 113.326C249.465 113.326 248.783 113.51 248.275 113.878C247.767 114.246 247.513 114.727 247.513 115.322C247.513 115.795 247.662 116.189 247.96 116.504C248.275 116.802 248.66 117.047 249.115 117.239C249.588 117.414 250.236 117.616 251.058 117.843C252.091 118.123 252.932 118.404 253.58 118.684C254.227 118.946 254.779 119.349 255.234 119.892C255.707 120.434 255.952 121.143 255.969 122.019C255.969 122.807 255.75 123.516 255.313 124.146C254.875 124.776 254.254 125.275 253.448 125.643C252.66 125.993 251.75 126.168 250.717 126.168ZM285.514 111.541L281.024 125.932H278.555L275.089 114.508L271.622 125.932H269.154L264.637 111.541H267.079L270.388 123.621L273.96 111.541H276.402L279.895 123.647L283.151 111.541H285.514ZM289.12 109.203C288.665 109.203 288.28 109.046 287.965 108.731C287.65 108.416 287.492 108.03 287.492 107.575C287.492 107.12 287.65 106.735 287.965 106.42C288.28 106.105 288.665 105.947 289.12 105.947C289.558 105.947 289.926 106.105 290.223 106.42C290.538 106.735 290.696 107.12 290.696 107.575C290.696 108.03 290.538 108.416 290.223 108.731C289.926 109.046 289.558 109.203 289.12 109.203ZM290.276 111.541V125.932H287.886V111.541H290.276ZM297.264 113.51V121.993C297.264 122.693 297.412 123.192 297.71 123.489C298.008 123.769 298.524 123.91 299.259 123.91H301.019V125.932H298.866C297.535 125.932 296.537 125.625 295.872 125.013C295.207 124.4 294.874 123.393 294.874 121.993V113.51H293.009V111.541H294.874V107.917H297.264V111.541H301.019V113.51H297.264ZM311.057 111.278C312.143 111.278 313.123 111.514 313.999 111.987C314.874 112.442 315.557 113.134 316.047 114.062C316.555 114.99 316.808 116.119 316.808 117.449V125.932H314.445V117.791C314.445 116.355 314.086 115.261 313.368 114.508C312.651 113.738 311.67 113.353 310.427 113.353C309.167 113.353 308.16 113.747 307.407 114.534C306.672 115.322 306.304 116.469 306.304 117.975V125.932H303.914V106.499H306.304V113.589C306.777 112.854 307.425 112.285 308.247 111.882C309.088 111.479 310.024 111.278 311.057 111.278ZM332.808 126.168C331.705 126.168 330.716 125.984 329.84 125.617C328.965 125.231 328.274 124.706 327.766 124.041C327.258 123.358 326.978 122.579 326.925 121.704H329.394C329.464 122.421 329.797 123.008 330.392 123.463C331.005 123.918 331.801 124.146 332.782 124.146C333.692 124.146 334.41 123.945 334.935 123.542C335.46 123.139 335.723 122.632 335.723 122.019C335.723 121.389 335.443 120.925 334.883 120.627C334.322 120.312 333.456 120.005 332.283 119.708C331.215 119.428 330.339 119.148 329.657 118.867C328.991 118.57 328.414 118.141 327.923 117.581C327.451 117.003 327.214 116.25 327.214 115.322C327.214 114.587 327.433 113.913 327.871 113.3C328.309 112.687 328.93 112.206 329.735 111.856C330.541 111.488 331.46 111.304 332.493 111.304C334.086 111.304 335.373 111.707 336.353 112.512C337.334 113.318 337.859 114.421 337.929 115.821H335.539C335.487 115.068 335.18 114.464 334.62 114.009C334.077 113.554 333.342 113.326 332.414 113.326C331.556 113.326 330.873 113.51 330.366 113.878C329.858 114.246 329.604 114.727 329.604 115.322C329.604 115.795 329.753 116.189 330.051 116.504C330.366 116.802 330.751 117.047 331.206 117.239C331.679 117.414 332.326 117.616 333.149 117.843C334.182 118.123 335.023 118.404 335.67 118.684C336.318 118.946 336.87 119.349 337.325 119.892C337.797 120.434 338.043 121.143 338.06 122.019C338.06 122.807 337.841 123.516 337.404 124.146C336.966 124.776 336.344 125.275 335.539 125.643C334.751 125.993 333.841 126.168 332.808 126.168ZM358.74 111.278C359.86 111.278 360.858 111.514 361.733 111.987C362.609 112.442 363.3 113.134 363.808 114.062C364.316 114.99 364.569 116.119 364.569 117.449V125.932H362.206V117.791C362.206 116.355 361.847 115.261 361.129 114.508C360.429 113.738 359.475 113.353 358.267 113.353C357.024 113.353 356.035 113.755 355.299 114.561C354.564 115.349 354.196 116.495 354.196 118.001V125.932H351.833V117.791C351.833 116.355 351.474 115.261 350.756 114.508C350.056 113.738 349.102 113.353 347.894 113.353C346.651 113.353 345.662 113.755 344.926 114.561C344.191 115.349 343.823 116.495 343.823 118.001V125.932H341.434V111.541H343.823V113.615C344.296 112.862 344.926 112.285 345.714 111.882C346.519 111.479 347.404 111.278 348.366 111.278C349.574 111.278 350.642 111.549 351.57 112.092C352.498 112.635 353.19 113.431 353.645 114.482C354.048 113.466 354.713 112.679 355.641 112.118C356.569 111.558 357.602 111.278 358.74 111.278ZM367.597 118.684C367.597 117.213 367.894 115.926 368.489 114.823C369.085 113.703 369.899 112.836 370.932 112.223C371.982 111.611 373.146 111.304 374.424 111.304C375.685 111.304 376.779 111.576 377.707 112.118C378.635 112.661 379.326 113.344 379.782 114.167V111.541H382.198V125.932H379.782V123.253C379.309 124.093 378.6 124.794 377.655 125.354C376.727 125.897 375.641 126.168 374.398 126.168C373.12 126.168 371.965 125.853 370.932 125.223C369.899 124.592 369.085 123.708 368.489 122.57C367.894 121.432 367.597 120.137 367.597 118.684ZM379.782 118.71C379.782 117.624 379.563 116.679 379.125 115.874C378.687 115.068 378.092 114.456 377.339 114.035C376.604 113.598 375.79 113.379 374.897 113.379C374.004 113.379 373.19 113.589 372.455 114.009C371.72 114.429 371.133 115.042 370.695 115.847C370.258 116.653 370.039 117.598 370.039 118.684C370.039 119.787 370.258 120.749 370.695 121.572C371.133 122.378 371.72 122.999 372.455 123.437C373.19 123.857 374.004 124.067 374.897 124.067C375.79 124.067 376.604 123.857 377.339 123.437C378.092 122.999 378.687 122.378 379.125 121.572C379.563 120.749 379.782 119.795 379.782 118.71ZM388.626 113.878C389.046 113.055 389.641 112.416 390.412 111.961C391.199 111.506 392.154 111.278 393.274 111.278V113.747H392.644C389.965 113.747 388.626 115.2 388.626 118.106V125.932H386.236V111.541H388.626V113.878ZM398.948 113.51V121.993C398.948 122.693 399.096 123.192 399.394 123.489C399.692 123.769 400.208 123.91 400.943 123.91H402.703V125.932H400.549C399.219 125.932 398.221 125.625 397.556 125.013C396.89 124.4 396.558 123.393 396.558 121.993V113.51H394.693V111.541H396.558V107.917H398.948V111.541H402.703V113.51H398.948ZM411.707 118.71C411.707 117.222 412.004 115.926 412.6 114.823C413.195 113.703 414.018 112.836 415.068 112.223C416.136 111.611 417.353 111.304 418.718 111.304C420.487 111.304 421.94 111.733 423.078 112.591C424.233 113.449 424.995 114.639 425.362 116.163H422.789C422.544 115.287 422.062 114.596 421.344 114.088C420.644 113.58 419.769 113.326 418.718 113.326C417.353 113.326 416.25 113.799 415.409 114.745C414.569 115.672 414.149 116.994 414.149 118.71C414.149 120.443 414.569 121.782 415.409 122.728C416.25 123.673 417.353 124.146 418.718 124.146C419.769 124.146 420.644 123.901 421.344 123.411C422.045 122.92 422.526 122.22 422.789 121.31H425.362C424.977 122.78 424.207 123.962 423.051 124.855C421.896 125.73 420.452 126.168 418.718 126.168C417.353 126.168 416.136 125.862 415.068 125.249C414.018 124.636 413.195 123.769 412.6 122.649C412.004 121.529 411.707 120.216 411.707 118.71ZM435.694 111.278C436.779 111.278 437.76 111.514 438.635 111.987C439.51 112.442 440.193 113.134 440.683 114.062C441.191 114.99 441.445 116.119 441.445 117.449V125.932H439.082V117.791C439.082 116.355 438.723 115.261 438.005 114.508C437.287 113.738 436.307 113.353 435.064 113.353C433.803 113.353 432.796 113.747 432.044 114.534C431.308 115.322 430.941 116.469 430.941 117.975V125.932H428.551V106.499H430.941V113.589C431.413 112.854 432.061 112.285 432.884 111.882C433.724 111.479 434.661 111.278 435.694 111.278ZM451.625 126.168C450.277 126.168 449.051 125.862 447.949 125.249C446.863 124.636 446.005 123.769 445.375 122.649C444.762 121.511 444.456 120.198 444.456 118.71C444.456 117.239 444.771 115.944 445.401 114.823C446.049 113.685 446.924 112.819 448.027 112.223C449.13 111.611 450.365 111.304 451.73 111.304C453.096 111.304 454.33 111.611 455.433 112.223C456.536 112.819 457.402 113.677 458.033 114.797C458.68 115.917 459.004 117.222 459.004 118.71C459.004 120.198 458.672 121.511 458.006 122.649C457.359 123.769 456.475 124.636 455.354 125.249C454.234 125.862 452.991 126.168 451.625 126.168ZM451.625 124.067C452.483 124.067 453.288 123.866 454.041 123.463C454.794 123.06 455.398 122.456 455.853 121.651C456.326 120.846 456.562 119.865 456.562 118.71C456.562 117.554 456.334 116.574 455.879 115.769C455.424 114.963 454.829 114.368 454.094 113.983C453.358 113.58 452.562 113.379 451.704 113.379C450.828 113.379 450.023 113.58 449.288 113.983C448.57 114.368 447.992 114.963 447.555 115.769C447.117 116.574 446.898 117.554 446.898 118.71C446.898 119.883 447.108 120.872 447.528 121.677C447.966 122.483 448.544 123.087 449.262 123.489C449.979 123.875 450.767 124.067 451.625 124.067ZM463.381 109.203C462.925 109.203 462.54 109.046 462.225 108.731C461.91 108.416 461.753 108.03 461.753 107.575C461.753 107.12 461.91 106.735 462.225 106.42C462.54 106.105 462.925 105.947 463.381 105.947C463.818 105.947 464.186 106.105 464.484 106.42C464.799 106.735 464.956 107.12 464.956 107.575C464.956 108.03 464.799 108.416 464.484 108.731C464.186 109.046 463.818 109.203 463.381 109.203ZM464.536 111.541V125.932H462.146V111.541H464.536ZM467.716 118.71C467.716 117.222 468.014 115.926 468.609 114.823C469.204 113.703 470.027 112.836 471.078 112.223C472.145 111.611 473.362 111.304 474.728 111.304C476.496 111.304 477.949 111.733 479.087 112.591C480.243 113.449 481.004 114.639 481.372 116.163H478.798C478.553 115.287 478.072 114.596 477.354 114.088C476.654 113.58 475.778 113.326 474.728 113.326C473.362 113.326 472.259 113.799 471.419 114.745C470.579 115.672 470.158 116.994 470.158 118.71C470.158 120.443 470.579 121.782 471.419 122.728C472.259 123.673 473.362 124.146 474.728 124.146C475.778 124.146 476.654 123.901 477.354 123.411C478.054 122.92 478.536 122.22 478.798 121.31H481.372C480.987 122.78 480.216 123.962 479.061 124.855C477.905 125.73 476.461 126.168 474.728 126.168C473.362 126.168 472.145 125.862 471.078 125.249C470.027 124.636 469.204 123.769 468.609 122.649C468.014 121.529 467.716 120.216 467.716 118.71ZM497.691 118.185C497.691 118.64 497.665 119.121 497.612 119.629H486.11C486.197 121.047 486.679 122.159 487.554 122.964C488.447 123.752 489.524 124.146 490.784 124.146C491.817 124.146 492.675 123.91 493.358 123.437C494.058 122.947 494.548 122.299 494.828 121.494H497.402C497.017 122.877 496.247 124.006 495.091 124.881C493.936 125.739 492.5 126.168 490.784 126.168C489.419 126.168 488.193 125.862 487.108 125.249C486.04 124.636 485.199 123.769 484.587 122.649C483.974 121.511 483.668 120.198 483.668 118.71C483.668 117.222 483.965 115.917 484.56 114.797C485.156 113.677 485.987 112.819 487.055 112.223C488.141 111.611 489.384 111.304 490.784 111.304C492.15 111.304 493.358 111.602 494.408 112.197C495.459 112.792 496.264 113.615 496.824 114.666C497.402 115.699 497.691 116.872 497.691 118.185ZM495.222 117.686C495.222 116.775 495.021 115.996 494.618 115.349C494.216 114.683 493.664 114.184 492.964 113.852C492.281 113.501 491.52 113.326 490.679 113.326C489.471 113.326 488.438 113.712 487.58 114.482C486.74 115.252 486.259 116.32 486.136 117.686H495.222ZM505.94 126.168C504.837 126.168 503.848 125.984 502.972 125.617C502.097 125.231 501.406 124.706 500.898 124.041C500.39 123.358 500.11 122.579 500.057 121.704H502.526C502.596 122.421 502.929 123.008 503.524 123.463C504.137 123.918 504.933 124.146 505.914 124.146C506.824 124.146 507.542 123.945 508.067 123.542C508.592 123.139 508.855 122.632 508.855 122.019C508.855 121.389 508.575 120.925 508.014 120.627C507.454 120.312 506.588 120.005 505.415 119.708C504.347 119.428 503.471 119.148 502.789 118.867C502.123 118.57 501.546 118.141 501.055 117.581C500.583 117.003 500.346 116.25 500.346 115.322C500.346 114.587 500.565 113.913 501.003 113.3C501.441 112.687 502.062 112.206 502.867 111.856C503.673 111.488 504.592 111.304 505.625 111.304C507.218 111.304 508.505 111.707 509.485 112.512C510.466 113.318 510.991 114.421 511.061 115.821H508.671C508.618 115.068 508.312 114.464 507.752 114.009C507.209 113.554 506.474 113.326 505.546 113.326C504.688 113.326 504.005 113.51 503.498 113.878C502.99 114.246 502.736 114.727 502.736 115.322C502.736 115.795 502.885 116.189 503.182 116.504C503.498 116.802 503.883 117.047 504.338 117.239C504.811 117.414 505.458 117.616 506.281 117.843C507.314 118.123 508.155 118.404 508.802 118.684C509.45 118.946 510.002 119.349 510.457 119.892C510.929 120.434 511.175 121.143 511.192 122.019C511.192 122.807 510.973 123.516 510.536 124.146C510.098 124.776 509.476 125.275 508.671 125.643C507.883 125.993 506.973 126.168 505.94 126.168Z" fill="#193233"/>
</svg>
